<?xml version="1.0" standalone="no"?>
<!DOCTYPE svg PUBLIC "-//W3C//DTD SVG 20010904//EN"
 "http://www.w3.org/TR/2001/REC-SVG-20010904/DTD/svg10.dtd">
<svg version="1.0" xmlns="http://www.w3.org/2000/svg"
 width="1280.000000pt" height="1280.000000pt" viewBox="0 0 1280.000000 1280.000000"
 preserveAspectRatio="xMidYMid meet">

<g transform="translate(0.000000,1280.000000) scale(0.100000,-0.100000)"
fill="#000000" stroke="none">
<path d="M4885 11764 c-1135 -92 -2159 -635 -2864 -1519 -473 -592 -762 -1288
-858 -2065 -25 -205 -25 -715 0 -920 140 -1134 704 -2114 1605 -2787 572 -429
1226 -688 1962 -780 226 -28 735 -25 965 6 597 79 1113 261 1617 567 l98 59
1352 -1353 c744 -744 1380 -1375 1413 -1401 123 -99 243 -141 405 -141 165 0
286 44 417 150 170 138 263 325 263 529 0 107 -20 194 -67 291 -35 73 -70 109
-1416 1456 l-1379 1381 93 131 c342 477 577 1030 683 1605 54 288 60 369 61
742 0 376 -9 487 -61 760 -237 1232 -1003 2261 -2117 2845 -425 222 -896 365
-1417 430 -85 11 -661 21 -755 14z m660 -810 c1440 -155 2614 -1261 2854
-2689 34 -202 44 -321 44 -545 0 -303 -28 -522 -103 -814 -197 -774 -686
-1457 -1360 -1902 -414 -272 -843 -433 -1365 -511 -185 -27 -689 -25 -875 4
-369 58 -651 145 -965 297 -572 277 -1048 711 -1375 1256 -392 650 -544 1449
-419 2200 148 888 657 1676 1406 2177 639 427 1387 610 2158 527z"/>
</g>
</svg>
